<svg xmlns="http://www.w3.org/2000/svg" width="1200" height="630" viewBox="0 0 1200 630" font-family="'JetBrains Mono', ui-monospace, Menlo, Consolas, monospace">
  <!-- Social preview card (1200×630). Export to og-image.png, then uncomment the og:image
       tags in index.html. Open this file in a browser and screenshot at 1200×630, or run:
       (any SVG→PNG tool / online converter / `rsvg-convert og-image.svg -o og-image.png`). -->
  <defs>
    <radialGradient id="glow" cx="78%" cy="8%" r="60%">
      <stop offset="0%" stop-color="#5ef2a0" stop-opacity="0.12"/>
      <stop offset="100%" stop-color="#5ef2a0" stop-opacity="0"/>
    </radialGradient>
  </defs>

  <rect width="1200" height="630" fill="#04070a"/>
  <rect width="1200" height="630" fill="url(#glow)"/>

  <!-- terminal window -->
  <rect x="80" y="70" width="1040" height="490" rx="16" fill="#0a0f0e" stroke="#1b2a26" stroke-width="1.5"/>
  <!-- title bar -->
  <rect x="80" y="70" width="1040" height="52" rx="16" fill="#10171a"/>
  <rect x="80" y="104" width="1040" height="18" fill="#10171a"/>
  <circle cx="116" cy="96" r="7" fill="#ff5f56"/>
  <circle cx="140" cy="96" r="7" fill="#ffbd2e"/>
  <circle cx="164" cy="96" r="7" fill="#27c93f"/>
  <text x="600" y="101" fill="#8aa094" font-size="17" text-anchor="middle">jerome@portfolio — bash</text>

  <!-- body -->
  <text x="128" y="196" fill="#5ef2a0" font-size="22" font-weight="700">&gt;</text>
  <text x="160" y="196" fill="#8aa094" font-size="22">whoami</text>

  <text x="128" y="290" fill="#5ef2a0" font-size="78" font-weight="600" font-family="Spectral, Georgia, serif" font-style="italic">Jerome Prakash L</text>
  <text x="130" y="338" fill="#cbd8d0" font-size="26">Computer Science Engineering Student · Open to SWE / AI Internships</text>

  <!-- badges -->
  <g font-size="20">
    <rect x="130" y="372" width="118" height="40" rx="20" fill="#5ef2a01f" stroke="#2bc77f"/>
    <text x="189" y="398" fill="#5ef2a0" text-anchor="middle">Python</text>
    <rect x="262" y="372" width="150" height="40" rx="20" fill="#67e8f914" stroke="#67e8f988"/>
    <text x="337" y="398" fill="#67e8f9" text-anchor="middle">AI Agents</text>
    <rect x="426" y="372" width="158" height="40" rx="20" fill="#5ef2a01f" stroke="#2bc77f"/>
    <text x="505" y="398" fill="#5ef2a0" text-anchor="middle">Automation</text>
    <rect x="598" y="372" width="216" height="40" rx="20" fill="#67e8f914" stroke="#67e8f988"/>
    <text x="706" y="398" fill="#67e8f9" text-anchor="middle">Computer Vision</text>
  </g>

  <text x="128" y="476" fill="#5ef2a0" font-size="22" font-weight="700">&gt;</text>
  <text x="160" y="476" fill="#8aa094" font-size="22">cat ./skills.json</text>
  <text x="128" y="512" fill="#cbd8d0" font-size="19">[ "Python", "JS" ] · agents · prompt-engineering · RAG · WSL2/Linux · gesture-detection</text>
  <text x="128" y="540" fill="#5ef2a0" font-size="22">_<tspan fill="#5ef2a0">▮</tspan></text>
</svg>
